<svg xmlns="http://www.w3.org/2000/svg" width="335.416" height="71.658" viewBox="0 0 335.416 71.658"><g transform="translate(-77.001 -115)"><g transform="translate(-27 0.941)"><g transform="translate(-1709.235 1083.128)"><path d="M1972.342-944.949c4.463-.177,8.946-.517,13.37.292,6.986,1.278,10.424,6.434,10.007,13.606a15,15,0,0,1-.31,2.284,11.4,11.4,0,0,1-10.269,9.383,53.432,53.432,0,0,1-5.817.318c-2.3.051-4.607.012-6.88.012C1972.094-920.113,1972.029-943.5,1972.342-944.949Zm5.62,20.766a28.878,28.878,0,0,0,6.379-.25,6.385,6.385,0,0,0,5.376-5.537,13.807,13.807,0,0,0-.033-4.291,6.226,6.226,0,0,0-5.439-5.449,43.245,43.245,0,0,0-5.387-.338,4.472,4.472,0,0,0-.9.138Z" transform="translate(-30.579 -0.39)" fill="#fff"/><path d="M1909.977-929.192c-.865.963-1.66,1.763-2.342,2.651a2.26,2.26,0,0,0-.288,1.273c-.028,2.034-.012,4.068-.012,6.078a17.94,17.94,0,0,1-5.633.134v-25.807h5.6v10.249c.7-.105.945-.572,1.257-.907,2.643-2.855,5.292-5.706,7.89-8.6a2.3,2.3,0,0,1,1.987-.857c1.581.061,3.167.018,4.75.018h1.2l-10.34,11.508,10.213,14.373a6.922,6.922,0,0,1-.95.151c-1.538.013-3.078-.033-4.615.023a1.8,1.8,0,0,1-1.683-.858c-2-2.743-4.035-5.456-6.061-8.177C1910.68-928.3,1910.4-928.65,1909.977-929.192Z" transform="translate(0 -0.472)" fill="#fff"/><path d="M2039.44-942.672l-2.884,4.165c-.526-.32-.981-.6-1.442-.876a10.2,10.2,0,0,0-5.8-1.592,4.69,4.69,0,0,0-1.572.341,2.21,2.21,0,0,0-1.4,2,2.017,2.017,0,0,0,1.233,2.083,26.575,26.575,0,0,0,2.919,1.075c.946.3,1.926.5,2.872.8a19.549,19.549,0,0,1,2.272.883,6.882,6.882,0,0,1,4.281,7.051,7.216,7.216,0,0,1-4.71,6.7,13.138,13.138,0,0,1-7.731.62,16.12,16.12,0,0,1-8.207-4.277l3.386-4.158c.737.541,1.4,1.063,2.1,1.536a9.812,9.812,0,0,0,5.51,2.05,6.781,6.781,0,0,0,2.245-.379,2.161,2.161,0,0,0,1.459-2.1,2.086,2.086,0,0,0-1.251-2.09c-1.11-.489-2.284-.836-3.435-1.231-1.663-.572-3.373-1.034-4.987-1.721a6.225,6.225,0,0,1-3.9-5.992c-.115-2.964.865-5.319,3.49-6.858a11.411,11.411,0,0,1,6.672-1.4A15.443,15.443,0,0,1,2039.44-942.672Z" transform="translate(-51.04)" fill="#fff"/><path d="M2239.608-944.929a2.393,2.393,0,0,1,2.923.961c2.1,3,4.336,5.911,6.521,8.855.268.36.549.711.932,1.205.35-.431.661-.786.942-1.163,2.159-2.906,4.353-5.788,6.444-8.743.713-1.007,1.448-1.569,2.849-1.093-.917,1.42-1.984,2.73-2.973,4.091-1.011,1.392-2.043,2.768-3.065,4.151l-3.086,4.176,9.9,13.33a2.348,2.348,0,0,1-2.9-.925c-2.354-3.323-4.832-6.558-7.266-9.825-.261-.351-.547-.684-.906-1.132-.374.484-.68.866-.97,1.259-2.426,3.272-4.872,6.53-7.257,9.831a1.94,1.94,0,0,1-1.906.953c-.941-.072-1.892-.016-2.86-.016l-3.382-7.315h-15.177l-3.31,7.23c-.337.03-.644.073-.952.079-.267.005-.535-.033-1.02-.068L2225-945.015h1.925l11.929,25.9,9.946-13.333Zm-6.8,16.956c-.791-1.756-1.523-3.389-2.261-5.019s-1.476-3.294-2.248-4.925c-.754-1.6-1.386-3.257-2.4-5.039-2.347,5.136-4.57,9.98-6.771,14.983Z" transform="translate(-135.178 -0.431)" fill="#fff"/><path d="M1950.624-944.917H1956c.3.991.43,22.487.153,25.789a7.6,7.6,0,0,1-2.761.177c-.9.041-1.8.009-2.674.009C1950.377-920.007,1950.308-943.388,1950.624-944.917Z" transform="translate(-21.15 -0.5)" fill="#fff"/><path d="M2140.133-944.994h1.778l11.945,25.962h-1.98c-.927-2.022-1.91-4-2.739-6.047a1.812,1.812,0,0,0-2.036-1.278q-6.238.094-12.479,0a1.651,1.651,0,0,0-1.818,1.177c-.846,2.042-1.807,4.038-2.752,6.118h-1.72C2128.439-919.985,2139.016-943.247,2140.133-944.994Zm7.681,17.05-6.88-15.1-6.828,15.1Z" transform="translate(-98.386 -0.467)" fill="#fff"/><path d="M2101.166-931.939h1.708c.028.469.072.866.072,1.264.007,2.443-.042,4.887.027,7.329a2.032,2.032,0,0,1-1,1.9,13.95,13.95,0,0,1-8.986,2.475c-4.992-.256-9.018-2.336-11.416-6.86-4.083-7.7-.126-18.2,10.131-19.448a14.9,14.9,0,0,1,8.083,1.134,8.7,8.7,0,0,1,3.221,2.321l-1.014,1.085a2.486,2.486,0,0,1-.422-.217c-3.932-3.265-8.341-3.509-12.879-1.731a11.051,11.051,0,0,0-6.816,11.294,11.266,11.266,0,0,0,8.591,10.325,12.829,12.829,0,0,0,9.474-1.111,2.077,2.077,0,0,0,1.25-2.145c-.091-2.032-.027-4.071-.027-6.107Z" transform="translate(-77.398 -0.286)" fill="#fff"/><path d="M2310.4-919.088c-.54.025-.854.051-1.168.049a4.287,4.287,0,0,1-.6-.1c-.021-.466-.057-.908-.058-1.349-.006-2.125-.025-4.251.009-6.377a3.6,3.6,0,0,0-.573-2.035q-4.57-7.38-9.1-14.787c-.232-.378-.441-.771-.669-1.171,1.7-.43,1.7-.431,2.524.9q3.942,6.413,7.882,12.827c.254.412.528.811.908,1.391l9.407-15.291h1.837c-.277.5-.489.911-.731,1.306q-4.47,7.283-8.958,14.554a4.36,4.36,0,0,0-.731,2.537c.06,2.034.018,4.07.018,6.105Z" transform="translate(-172.149 -0.415)" fill="#fff"/><path d="M2182.2-919.057v-25.9h1.739c.018,8.079,0,16.137.011,24.349H2198.9c.027.584.047,1.016.071,1.549Z" transform="translate(-121.771 -0.484)" fill="#fff"/></g></g><g transform="translate(0.001 17)"><path d="M238.906,396.793q17.184,0,34.367,0c.627,0,.559-.085.559.544q0,28.747.012,57.495a6.571,6.571,0,0,1-5.766,6.454,6.018,6.018,0,0,1-.777.03q-7.241,0-14.482-.012a2.272,2.272,0,0,0-1.141.289c-2.861,1.552-5.733,3.082-8.6,4.622q-1.979,1.063-3.951,2.141c-.142.077-.251.142-.427.033-2.047-1.265-4.17-2.4-6.281-3.549-2.086-1.138-4.173-2.274-6.3-3.325a1.99,1.99,0,0,0-.911-.209c-4.885.009-9.77-.021-14.654.022a6.645,6.645,0,0,1-6.583-5.648,5.367,5.367,0,0,1-.044-.819q0-28.791,0-57.581c0-.086,0-.173,0-.259-.009-.164.061-.238.228-.229.129.007.259,0,.389,0Zm25.564,50.923c.061.01.08-.018.069-.075,0-.173.012-.345.012-.518q0-5.23,0-10.461c0-.086,0-.173,0-.259,0-.405,0-.408.394-.409.778,0,1.556,0,2.334,0,.086,0,.173,0,.259,0,.162.009.237-.057.232-.225-.007-.23,0-.461,0-.692,0-.377,0-.378-.378-.383H255.2c-.087,0-.173.006-.259,0-.181-.013-.265.058-.258.247.009.23,0,.461,0,.692,0,.354.006.359.354.36,1.124,0,2.248,0,3.372,0,.41,0,.414,0,.414.391,0,2.594,0,5.187,0,7.781a.675.675,0,0,1-.241.563A7.683,7.683,0,0,1,256,446.257a9.616,9.616,0,0,1-4.9.309,6.743,6.743,0,0,1-4.342-2.678,9.557,9.557,0,0,1-1.314-2.519,19.3,19.3,0,0,1-1-5.5,30.8,30.8,0,0,1,.4-7.7,13.4,13.4,0,0,1,1.5-4.212,7.178,7.178,0,0,1,4.9-3.591,9.745,9.745,0,0,1,4.115.022,7.356,7.356,0,0,1,4.517,2.962,11.366,11.366,0,0,1,1.487,2.962c.273.774.5,1.561.7,2.357.12.474.08.382.513.39.245,0,.49-.005.735,0,.166,0,.239-.064.228-.228,0-.072,0-.144,0-.216l-.175-9.117a.278.278,0,0,0-.054-.2.945.945,0,0,0-.381.038c-1.212.25-2.425.492-3.635.75a.909.909,0,0,1-.582-.049,16.708,16.708,0,0,0-9.734-1.011,13.324,13.324,0,0,0-10.605,9.737,18.353,18.353,0,0,0-.136,8.727,12.71,12.71,0,0,0,4.515,7.417,14.571,14.571,0,0,0,8.436,3.244,15.688,15.688,0,0,0,7.985-1.442.572.572,0,0,1,.413-.041c.5.122,1.01.228,1.517.334C262.222,447.231,263.337,447.519,264.471,447.716Zm-44.6-14.951c0-.158-.013-.316-.013-.475q0-5.617,0-11.235c0-.646-.078-.559.584-.562.965,0,1.93,0,2.9,0,.313,0,.319-.008.322-.3s-.01-.6-.016-.906c.007-.058-.019-.081-.076-.071-.1-.005-.2-.016-.3-.016H210.6c-.072,0-.144,0-.216,0-.146,0-.207.064-.205.209,0,.245,0,.49,0,.735,0,.348.006.352.363.353,1.009,0,2.017,0,3.026,0,.42,0,.42,0,.423.423,0,.058,0,.115,0,.173v24.771c0,.086,0,.173,0,.259-.008.318-.009.323-.345.325-.893,0-1.787,0-2.68,0-.242,0-.545-.1-.711.05-.19.173-.067.49-.071.743-.008.548-.066.5.513.5q6.225,0,12.45,0a1.3,1.3,0,0,0,.47-.031,1.348,1.348,0,0,0-1.384-1.263c-.677-.01-1.354,0-2.032,0-.335,0-.335-.007-.343-.328,0-.072,0-.144,0-.216q0-5.144,0-10.289c0-.1,0-.2,0-.3a.318.318,0,0,1,.114-.266l1.7-1.516a.923.923,0,0,1,.324.377q4.613,6.767,9.215,13.541a.727.727,0,0,0,.7.365c2.247-.031,4.495-.037,6.742-.061a6.323,6.323,0,0,0,1.063-.035.428.428,0,0,0-.018-.31,1.372,1.372,0,0,0-1.435-.954.707.707,0,0,1-.69-.3q-5.705-8.114-11.435-16.21c-.226-.32-.224-.32.069-.588q3.432-3.133,6.864-6.266a22.858,22.858,0,0,1,2.2-1.884,3.758,3.758,0,0,1,1.87-.717,1.6,1.6,0,0,0,1.182-.719c.1-.141.211-.316.144-.478-.074-.179-.282-.086-.427-.087q-3.912-.009-7.825,0c-.072,0-.145.006-.216,0-.193-.016-.252.088-.249.261,0,.2,0,.4,0,.605,0,.429,0,.432.422.432.994,0,1.989,0,2.983,0,.086,0,.206-.059.257.078a1.011,1.011,0,0,1-.269.277q-5.1,4.643-10.2,9.283c-.97.882-1.946,1.757-2.919,2.635Z" transform="translate(-126.922 -298.791)" fill="#57bb72"/><path d="M287.709,649.434c.006.3.019.6.016.906s-.009.3-.322.3c-.965,0-1.93,0-2.9,0-.663,0-.584-.084-.585.562q0,5.617,0,11.235c0,.158.008.316.013.475-.008.039,0,.08.04.085a.1.1,0,0,0,.108-.081c.973-.878,1.949-1.753,2.919-2.635q5.1-4.639,10.2-9.283a1.011,1.011,0,0,0,.269-.277c-.052-.138-.171-.078-.257-.078-.994,0-1.989,0-2.983,0-.418,0-.419,0-.422-.432,0-.2,0-.4,0-.605,0-.173.055-.277.249-.261.072.006.144,0,.216,0q3.912,0,7.825,0c.145,0,.353-.092.427.087.067.162-.045.337-.144.478a1.6,1.6,0,0,1-1.182.719,3.757,3.757,0,0,0-1.87.716,22.871,22.871,0,0,0-2.2,1.884q-3.434,3.13-6.864,6.266c-.293.267-.295.268-.069.588q5.721,8.1,11.435,16.21a.707.707,0,0,0,.69.3,1.372,1.372,0,0,1,1.435.954.428.428,0,0,1,.018.31,6.327,6.327,0,0,1-1.064.035c-2.247.024-4.495.031-6.742.061a.727.727,0,0,1-.7-.365q-4.6-6.779-9.215-13.541a.923.923,0,0,0-.324-.377l-1.7,1.516a.318.318,0,0,0-.114.266c0,.1,0,.2,0,.3q0,5.144,0,10.289c0,.072,0,.144,0,.216.008.321.008.326.343.328.677,0,1.355-.007,2.032,0a1.348,1.348,0,0,1,1.384,1.263,1.3,1.3,0,0,1-.47.031q-6.225,0-12.45,0c-.579,0-.521.047-.513-.5,0-.253-.119-.57.071-.743.167-.152.469-.048.711-.05.893-.006,1.787,0,2.68,0,.337,0,.337-.006.345-.325,0-.086,0-.173,0-.259V651.242c0-.058,0-.115,0-.173,0-.421,0-.423-.423-.423-1.009,0-2.017,0-3.026,0-.356,0-.358-.005-.363-.353,0-.245,0-.49,0-.735,0-.145.059-.213.205-.208.072,0,.144,0,.216,0h12.667c.1,0,.2.01.3.016Z" transform="translate(-190.982 -528.602)" fill="#fefefe"/><path d="M612.493,673.131c-1.134-.2-2.249-.485-3.374-.722-.507-.107-1.014-.213-1.517-.334a.572.572,0,0,0-.413.041,15.687,15.687,0,0,1-7.985,1.442,14.57,14.57,0,0,1-8.437-3.244,12.709,12.709,0,0,1-4.515-7.417,18.353,18.353,0,0,1,.136-8.727,13.324,13.324,0,0,1,10.6-9.737,16.707,16.707,0,0,1,9.734,1.011.909.909,0,0,0,.582.049c1.21-.258,2.424-.5,3.635-.75a.944.944,0,0,1,.381-.038.278.278,0,0,1,.054.2q.088,4.558.175,9.117c0,.072,0,.144,0,.216.011.165-.062.233-.227.228-.245-.007-.49,0-.735,0-.433-.008-.393.084-.513-.39-.2-.8-.43-1.583-.7-2.357a11.367,11.367,0,0,0-1.487-2.962,7.357,7.357,0,0,0-4.517-2.962,9.746,9.746,0,0,0-4.115-.022,7.178,7.178,0,0,0-4.9,3.591,13.4,13.4,0,0,0-1.5,4.212,30.8,30.8,0,0,0-.4,7.7,19.3,19.3,0,0,0,1,5.5,9.553,9.553,0,0,0,1.314,2.519,6.743,6.743,0,0,0,4.342,2.678,9.615,9.615,0,0,0,4.9-.309,7.684,7.684,0,0,0,2.587-1.528.675.675,0,0,0,.241-.563c-.007-2.594,0-5.187,0-7.781,0-.388,0-.391-.414-.391-1.124,0-2.248,0-3.372,0-.348,0-.349-.006-.354-.36,0-.231.007-.461,0-.692-.007-.189.077-.261.258-.247.086.006.173,0,.259,0h12.19c.373.005.375.005.378.383,0,.231-.006.461,0,.692,0,.168-.07.234-.232.225-.086,0-.173,0-.259,0-.778,0-1.556,0-2.334,0-.391,0-.391,0-.394.409,0,.086,0,.173,0,.259q0,5.23,0,10.461c0,.172-.008.345-.012.518Z" transform="translate(-474.945 -523.865)" fill="#fdfefd"/></g></g></svg>